<?xml version="1.0" standalone="no"?>
<!DOCTYPE svg PUBLIC "-//W3C//DTD SVG 20010904//EN"
 "http://www.w3.org/TR/2001/REC-SVG-20010904/DTD/svg10.dtd">
<svg version="1.0" xmlns="http://www.w3.org/2000/svg"
 width="700.000000pt" height="700.000000pt" viewBox="0 0 700.000000 700.000000"
 preserveAspectRatio="xMidYMid meet">
<metadata>
Created by potrace 1.11, written by Peter Selinger 2001-2013
</metadata>
<g transform="translate(0.000000,700.000000) scale(0.100000,-0.100000)"
fill="#000000" stroke="none">
<path d="M0 3500 l0 -3500 3500 0 3500 0 0 3500 0 3500 -3500 0 -3500 0 0
-3500z m2355 2580 c145 -12 253 -33 360 -70 332 -114 594 -368 735 -714 37
-91 52 -135 81 -246 l11 -45 24 95 c59 244 182 466 353 640 175 176 382 287
621 331 91 17 364 14 485 -5 302 -47 649 -198 927 -403 56 -42 56 -42 48 -80
-5 -21 -63 -283 -130 -583 -66 -300 -123 -553 -126 -563 -4 -14 -19 -6 -82 49
-160 137 -380 266 -552 323 -209 68 -424 68 -530 -2 -53 -36 -74 -86 -74 -177
-1 -106 24 -156 127 -257 102 -100 189 -166 434 -327 241 -158 368 -258 510
-401 142 -144 244 -281 321 -431 135 -267 184 -491 184 -844 0 -195 -10 -298
-43 -443 -99 -436 -386 -776 -767 -912 -211 -75 -346 -98 -557 -98 -422 1
-816 127 -1130 361 -81 61 -175 153 -175 172 0 22 277 1150 284 1157 3 3 41
-28 85 -70 270 -258 578 -397 880 -397 281 0 431 110 431 316 0 121 -87 234
-275 354 -251 162 -518 344 -600 410 -287 231 -500 520 -601 816 l-28 81 -27
-131 c-30 -153 -91 -337 -154 -469 -142 -298 -389 -552 -657 -676 -186 -86
-327 -111 -630 -111 l-218 0 0 -800 0 -800 -495 0 -495 0 0 2480 0 2480 663 0
c364 0 716 -5 782 -10z"/>
<path d="M1900 4390 l0 -600 124 0 c149 0 212 11 293 50 122 60 228 214 267
387 20 91 21 284 1 378 -39 183 -159 321 -324 371 -31 9 -97 14 -203 14 l-158
0 0 -600z"/>
</g>
</svg>
